# Blender 4.2.2 LTS
# www.blender.org
mtllib gun.mtl
o Cube
v 0.353904 1.279852 -0.353904
v 0.353904 -1.279852 -0.353904
v 0.353904 1.279852 0.353904
v 0.353904 -1.279852 0.353904
v -0.353904 1.279852 -0.353904
v -0.353904 -1.279852 -0.353904
v -0.353904 1.279852 0.353904
v -0.353904 -1.279852 0.353904
v 0.353904 1.932604 -0.353904
v 0.353904 1.932604 0.353904
v -0.353904 1.932604 -0.353904
v -0.353904 1.932604 0.353904
v 0.353904 1.279852 -3.505167
v -0.353904 1.279852 -3.505167
v 0.353904 1.932604 -3.505167
v -0.353904 1.932604 -3.505167
vn -1.0000 -0.0000 -0.0000
vn -0.0000 -0.0000 1.0000
vn -0.0000 -1.0000 -0.0000
vn 1.0000 -0.0000 -0.0000
vn -0.0000 -0.0000 -1.0000
vn -0.0000 1.0000 -0.0000
vt 0.782189 0.088641
vt 0.630112 0.059373
vt 0.652716 -0.000000
vt 0.736621 0.820897
vt 0.630112 0.611035
vt 0.736621 0.611035
vt 0.736621 0.401173
vt 0.946483 0.611035
vt 0.736621 0.611035
vt 0.736621 0.611035
vt 0.630112 0.401173
vt 0.736621 0.401173
vt 0.946483 0.820897
vt 0.736621 0.611035
vt 0.946483 0.611035
vt 0.782189 0.000000
vt 0.992051 0.209862
vt 0.782189 0.209862
vt 0.719974 0.266547
vt 0.630112 0.332663
vt 0.656530 0.401173
vt 0.773919 0.300315
vt 0.419724 0.934335
vt 0.524918 -0.000000
vt 0.524918 0.934335
vt 0.735804 0.127373
vt 0.946483 0.401173
vt 1.000000 0.611035
vt 0.209862 0.000000
vt -0.000000 0.934335
vt 0.000000 0.000000
vt 0.630112 -0.000000
vt 0.630112 0.934335
vt 0.419724 0.000000
vt 0.209862 0.934335
vt 0.209862 0.000000
vt 0.630112 0.820897
vt 0.946483 0.401173
vt 0.630112 0.611035
vt 0.736621 0.820897
vt 0.992051 0.000000
vt 0.419724 -0.000000
vt 1.000000 0.401173
vt 0.209862 0.934335
vt 0.524918 -0.000000
vt 0.419724 0.934335
s 0
usemtl Material
f 7/1/1 11/2/1 5/3/1
f 3/4/2 8/5/2 4/6/2
f 7/7/1 6/8/1 8/9/1
f 2/10/3 8/11/3 6/12/3
f 1/13/4 4/14/4 2/15/4
f 5/16/5 2/17/5 6/18/5
f 11/2/6 10/19/6 9/20/6
f 1/21/4 10/19/4 3/22/4
f 1/23/4 15/24/4 9/25/4
f 3/22/2 12/26/2 7/1/2
f 14/27/5 15/28/5 13/8/5
f 5/29/3 13/30/3 1/31/3
f 11/25/1 14/32/1 5/33/1
f 9/34/6 16/35/6 11/36/6
f 7/1/1 12/26/1 11/2/1
f 3/4/2 7/37/2 8/5/2
f 7/7/1 5/38/1 6/8/1
f 2/10/3 4/39/3 8/11/3
f 1/13/4 3/40/4 4/14/4
f 5/16/5 1/41/5 2/17/5
f 11/2/6 12/26/6 10/19/6
f 1/21/4 9/20/4 10/19/4
f 1/23/4 13/42/4 15/24/4
f 3/22/2 10/19/2 12/26/2
f 14/27/5 16/43/5 15/28/5
f 5/29/3 14/44/3 13/30/3
f 11/25/1 16/45/1 14/32/1
f 9/34/6 15/46/6 16/35/6
